<svg xmlns="http://www.w3.org/2000/svg" version="1.1" xmlns:xlink="http://www.w3.org/1999/xlink" xmlns:svgjs="http://svgjs.com/svgjs" width="1920" height="1080" preserveAspectRatio="none" viewBox="0 0 1920 1080"><g mask="url(&quot;#SvgjsMask1024&quot;)" fill="none"><rect width="1920" height="1080" x="0" y="0" fill="#0e2a47"></rect><path d="M180 270C247.85 203.34 231.69 182.45 270 90C287.63 47.45 255.19 12.23 291.89 0C390.19 -32.77 415.94 0 540 0C675 0 675 0 810 0C945 0 945 0 1080 0C1200.79 0 1272.94 -63.47 1321.58 0C1376.38 71.53 1276.96 141.08 1286.88 270C1291.17 325.67 1300.35 363.51 1350 369.18C1466.91 382.53 1488.37 347.08 1620 308.03C1655.52 297.49 1684.29 295.04 1684.29 270C1684.29 235.12 1656.33 225.25 1620 188.18C1524.03 90.25 1419.68 54.42 1419.68 0C1419.68 -39.67 1519.84 0 1620 0C1755 0 1755 0 1890 0C2025 0 2092.5 -67.5 2160 0C2227.5 67.5 2160 135 2160 270C2160 405 2160 405 2160 540C2160 675 2160 675 2160 810C2160 903.17 2215.05 954.61 2160 996.34C2080.05 1056.95 2014.21 983.15 1890 1014.68C1849.43 1024.98 1870.37 1070.34 1830.44 1080C1735.37 1103 1725.22 1080 1620 1080C1520.63 1080 1511.81 1102.34 1421.25 1080C1376.81 1069.03 1385.63 1013.38 1350 1013.38C1314.38 1013.38 1323.19 1069.03 1278.75 1080C1188.19 1102.34 1179.38 1080 1080 1080C945 1080 945 1080 810 1080C675 1080 675 1080 540 1080C456.21 1080 454.27 1091.12 372.41 1080C319.27 1072.78 317.15 1069.92 270 1043.33C130.94 964.92 113.73 968.29 0 870C-21.27 851.62 0 840 0 810C0 675 0 675 0 540C0 447.63 -43.31 420.22 0 355.26C46.69 285.22 112.85 335.97 180 270" stroke="rgba(51, 121, 194, 0.58)" stroke-width="2"></path><path d="M540 218.57C468.8 256.63 390.03 213.45 385.71 270C377.75 374.16 491.37 398.65 515.45 540C537.36 668.65 469.92 678.56 477.69 810C482.2 886.25 502.6 955.38 540 955.38C581 955.38 632.23 889.02 634.5 810C638.19 681.33 511.38 649.47 551.91 540C599.13 412.43 682.91 440.24 810 335.93C847.39 305.24 880.88 312.37 880.88 270C880.88 166 882.38 54.12 810 43.2C711.94 28.4 680.95 143.23 540 218.57" stroke="rgba(51, 121, 194, 0.58)" stroke-width="2"></path><path d="M1890 466.36C1854.79 466.36 1845.62 504.71 1845.62 540C1845.62 568.99 1858.92 594.92 1890 594.92C1982.36 594.92 2092.5 571.71 2092.5 540C2092.5 507.43 1978.23 466.36 1890 466.36" stroke="rgba(51, 121, 194, 0.58)" stroke-width="2"></path><path d="M540 138.21C459.1 138.21 383.11 39.48 383.11 0C383.11 -29.62 461.56 0 540 0C630.7 0 721.41 -30.62 721.41 0C721.41 38.49 628.25 138.21 540 138.21" stroke="rgba(51, 121, 194, 0.58)" stroke-width="2"></path><path d="M965.25 270C990.38 152.43 863.87 81.7 898.59 0C921.24 -53.3 989.3 0 1080 0C1156.38 0 1211.33 -48.54 1232.76 0C1270.94 86.46 1242.54 145.22 1199.22 270C1166.16 365.22 1143.48 358.08 1080 440C1038.87 493.08 1015.86 479.76 990 540C936.45 664.76 894.69 697.4 921.18 810C939.69 888.65 1013.13 854.06 1080 922.5C1145.04 989.06 1185 1029.35 1185 1080C1185 1108.1 1132.5 1080 1080 1080C945 1080 945 1080 810 1080C693.53 1080 590.35 1136.97 577.06 1080C558.85 1001.97 727.47 952.25 747 810C764.53 682.25 632.72 655.89 651.18 540C664.22 458.1 733.29 480.36 810 414.42C890.33 345.36 946.09 359.64 965.25 270" stroke="rgba(51, 121, 194, 0.58)" stroke-width="2"></path><path d="M1845 270C1740.1 137.84 1628.63 77.82 1641.6 0C1651.13 -57.18 1765.8 0 1890 0C2025 0 2092.5 -67.5 2160 0C2227.5 67.5 2160 135 2160 270C2160 344.68 2205.87 412.06 2160 419.36C2070.87 433.54 2019.7 374.45 1890 312.95C1862.2 299.77 1864.3 294.32 1845 270" stroke="rgba(51, 121, 194, 0.58)" stroke-width="2"></path><path d="M0 444.08C99.69 416.39 151.83 428.54 270 465C307.28 476.5 295.53 500.26 310.91 540C362.29 672.76 415.53 686.73 403.52 810C395.07 896.73 342.76 960 270 960C183.96 960 169.5 893.01 85.91 810C34.5 758.95 21.06 758.06 0 691.88C-21.9 623.06 0 615.94 0 540C0 492.04 -35.31 453.89 0 444.08" stroke="rgba(51, 121, 194, 0.58)" stroke-width="2"></path><path d="M1287.69 540C1304.14 510.35 1317.43 520.36 1350 506.94C1483.58 451.91 1498.58 393.14 1620 403.1C1700.16 409.67 1690.07 468.45 1753.15 540C1825.07 621.56 1799.83 681.4 1890 709.32C2003.26 744.4 2071.57 633.02 2160 666C2206.57 683.36 2160 738 2160 810C2160 855.63 2194.1 889.17 2160 901.27C2059.1 937.07 2004.48 858.1 1890 905.81C1790.07 947.46 1822.91 1020.82 1731.18 1080C1687.91 1107.91 1675.59 1080 1620 1080C1567.5 1080 1557.84 1104.48 1515 1080C1422.84 1027.33 1437.5 996.63 1350 925.71C1270.95 861.63 1194.76 889.66 1181.89 810C1163.6 696.81 1220.08 661.88 1287.69 540" stroke="rgba(51, 121, 194, 0.58)" stroke-width="2"></path><path d="M540 57.86C506.13 57.86 474.32 16.53 474.32 0C474.32 -12.4 507.16 0 540 0C577.97 0 615.94 -12.82 615.94 0C615.94 16.11 576.94 57.86 540 57.86" stroke="rgba(51, 121, 194, 0.58)" stroke-width="2"></path><path d="M1049.63 270C1017.94 138.56 992.17 105.69 1004.06 0C1007.36 -29.31 1042.03 0 1080 0C1111.97 0 1140.95 -25.7 1143.95 0C1156.73 109.3 1138.16 138.98 1111.56 270C1106.18 296.48 1095.58 315 1080 315C1064.61 315 1055.91 296.06 1049.63 270" stroke="rgba(51, 121, 194, 0.58)" stroke-width="2"></path><path d="M2145.79 270C2145.79 265.4 2155.62 258.75 2160 258.75C2162.72 258.75 2160 264.38 2160 270C2160 272.87 2161.94 275.74 2160 275.74C2154.83 275.74 2145.79 273.89 2145.79 270" stroke="rgba(51, 121, 194, 0.58)" stroke-width="2"></path><path d="M0 532.89C9.6 532.89 24.55 535.54 24.55 540C24.55 544.72 8.67 551.25 0 551.25C-3.61 551.25 0 545.63 0 540C0 536.44 -2.67 532.89 0 532.89" stroke="rgba(51, 121, 194, 0.58)" stroke-width="2"></path><path d="M750.44 540C750.44 508.27 779.51 492.91 810 492.91C843.04 492.91 877.5 506.88 877.5 540C877.5 608.31 842.05 695.77 810 695.77C778.52 695.77 750.44 609.7 750.44 540" stroke="rgba(51, 121, 194, 0.58)" stroke-width="2"></path><path d="M1521 540C1560.96 505.69 1574.73 498.17 1620 498.17C1644.57 498.17 1647.87 514.1 1660.68 540C1725.01 670.02 1781.33 677.78 1774.29 810C1766.95 947.78 1706.16 950.07 1631.91 1080C1629.01 1085.07 1625.95 1080 1620 1080C1614.38 1080 1612.91 1083.72 1608.75 1080C1477.91 962.75 1481.4 956.51 1350 838.05C1331.65 821.51 1309.25 829.19 1309.25 810C1309.25 775.17 1322.48 765.09 1350 730C1428.35 630.09 1425.96 621.6 1521 540" stroke="rgba(51, 121, 194, 0.58)" stroke-width="2"></path><path d="M188.18 810C188.18 749.57 233.51 675 270 675C304.09 675 329.34 747.18 329.34 810C329.34 848.02 302.34 876.67 270 876.67C231.76 876.67 188.18 850.4 188.18 810" stroke="rgba(51, 121, 194, 0.58)" stroke-width="2"></path><path d="M709.41 1080C709.41 1023.27 737.82 912.29 810 909C923.11 903.85 947.99 982.87 1080 1063.13C1088.61 1068.37 1091.25 1074.57 1091.25 1080C1091.25 1083.01 1085.63 1080 1080 1080C945 1080 945 1080 810 1080C759.7 1080 709.41 1108.77 709.41 1080" stroke="rgba(51, 121, 194, 0.58)" stroke-width="2"></path></g><defs><mask id="SvgjsMask1024"><rect width="1920" height="1080" fill="#ffffff"></rect></mask></defs></svg>